<svg width="117px" height="46px" viewBox="0 0 117 46" fill="none" xmlns="http://www.w3.org/2000/svg" transform="rotate(0) scale(1, 1)">
<path d="M8.34606 7.36973C8.49361 7.36922 8.64115 7.3687 8.79317 7.36816C9.03615 7.3702 9.03615 7.3702 9.28403 7.37227C9.45451 7.37222 9.62498 7.37216 9.80062 7.37211C10.2683 7.372 10.7359 7.37422 11.2036 7.37685C11.6923 7.3792 12.1809 7.37942 12.6696 7.37987C13.595 7.38104 14.5205 7.38414 15.4459 7.38792C16.6964 7.39292 17.9469 7.39496 19.1973 7.39716C21.1677 7.40071 23.138 7.40822 25.1084 7.41508C25.1084 12.5166 25.1084 17.618 25.1084 22.8741C19.6887 22.9134 19.6887 22.9134 17.9759 22.9228C17.4703 22.9274 17.4703 22.9274 16.9647 22.9325C16.7391 22.9346 16.5135 22.9359 16.2879 22.9366C15.9466 22.9378 15.6054 22.9413 15.2641 22.9454C15.1127 22.9452 15.1127 22.9452 14.9583 22.9449C14.6521 22.9458 14.6521 22.9458 14.2367 22.9998C13.8488 23.5648 13.9331 24.135 13.9182 24.8016C13.8394 25.3216 13.718 25.5299 13.3307 25.8905C12.8235 26.0338 12.5501 26.0676 12.0608 25.8669C11.7566 25.6222 11.6595 25.4901 11.5188 25.1364C11.4894 24.7793 11.4894 24.7793 11.4935 24.3725C11.4943 24.2267 11.4952 24.0808 11.496 23.9306C11.4982 23.779 11.5004 23.6273 11.5026 23.4711C11.5038 23.3175 11.5049 23.1639 11.5062 23.0057C11.5092 22.6266 11.5135 22.2476 11.5188 21.8686C11.4418 21.8692 11.3649 21.8697 11.2856 21.8703C10.4857 21.8759 9.6858 21.8797 8.8859 21.8824C8.58724 21.8837 8.28857 21.8854 7.98991 21.8876C7.56103 21.8906 7.13217 21.8921 6.70328 21.8932C6.56939 21.8945 6.43551 21.8958 6.29757 21.8971C6.17322 21.8971 6.04887 21.8971 5.92076 21.8972C5.81126 21.8977 5.70176 21.8983 5.58894 21.8989C5.3064 21.8686 5.3064 21.8686 4.91813 21.6173C4.88577 21.2324 4.88577 21.2324 4.91813 20.8632C5.04755 20.7375 5.04755 20.7375 5.30879 20.7224C5.42346 20.7226 5.53814 20.7229 5.65628 20.7232C5.78583 20.7232 5.91538 20.7232 6.04886 20.7232C6.18974 20.7239 6.33062 20.7245 6.47577 20.7252C6.69095 20.7255 6.69095 20.7255 6.91048 20.7257C7.37074 20.7265 7.831 20.728 8.29126 20.7296C8.60244 20.7303 8.91361 20.7308 9.22479 20.7313C9.98946 20.7327 10.7541 20.7348 11.5188 20.7375C11.5188 20.4057 11.5188 20.0739 11.5188 19.732C13.0136 19.6905 14.5085 19.6491 16.0487 19.6063C16.1127 19.4197 16.1127 19.4197 16.1781 19.2293C16.1354 19.1463 16.0927 19.0634 16.0487 18.9779C13.8064 18.9157 13.8064 18.9157 11.5188 18.8522C11.5188 18.4375 11.5188 18.0227 11.5188 17.5954C11.4032 17.5974 11.2876 17.5994 11.1685 17.6014C10.7394 17.6078 10.3104 17.6125 9.88123 17.6161C9.69556 17.618 9.50988 17.6206 9.32423 17.6238C9.05724 17.6284 8.79033 17.6306 8.52332 17.6322C8.36268 17.6342 8.20205 17.6362 8.03655 17.6382C7.63605 17.5954 7.63605 17.5954 7.37837 17.4517C7.24777 17.2184 7.24777 17.2184 7.3772 16.4643C8.74392 16.4643 10.1106 16.4643 11.5188 16.4643C11.5188 15.9251 11.5188 15.3859 11.5188 14.8304C12.1167 14.8304 12.7147 14.8304 13.3307 14.8304C13.3307 14.623 13.3307 14.4156 13.3307 14.202C12.9811 14.0322 12.6683 14.0337 12.2792 14.0056C12.1374 13.9951 11.9955 13.9845 11.8494 13.9737C11.6858 13.9622 11.6858 13.9622 11.5188 13.9506C11.5188 13.6188 11.5188 13.287 11.5188 12.9451C11.4463 12.9458 11.3739 12.9464 11.2992 12.9471C10.9707 12.9497 10.6421 12.9514 10.3135 12.953C10.1425 12.9546 10.1425 12.9546 9.96797 12.9562C9.85827 12.9566 9.74858 12.957 9.63556 12.9574C9.53457 12.9581 9.43358 12.9587 9.32953 12.9594C9.05972 12.9451 9.05972 12.9451 8.67145 12.8194C8.58247 12.466 8.58247 12.466 8.54202 12.0653C8.69587 11.8541 8.69587 11.8541 8.9303 11.6883C9.21199 11.6455 9.21199 11.6455 9.53445 11.6515C9.64998 11.6527 9.76552 11.6539 9.88455 11.6552C10.0649 11.6599 10.0649 11.6599 10.2488 11.6647C10.3705 11.6664 10.4922 11.6681 10.6176 11.6699C10.918 11.6743 11.2184 11.6811 11.5188 11.6883C11.5188 11.2735 11.5188 10.8588 11.5188 10.4315C12.3303 10.39 13.1418 10.3485 13.9779 10.3058C14.0206 10.1399 14.0633 9.97398 14.1073 9.80305C13.9067 9.60831 13.7061 9.65015 13.4273 9.6376C13.2615 9.62971 13.2615 9.62971 13.0924 9.62165C12.9762 9.61671 12.86 9.61177 12.7402 9.60667C12.5652 9.59853 12.5652 9.59853 12.3866 9.59023C12.0973 9.57685 11.8081 9.56403 11.5188 9.55169C11.5188 9.26136 11.5188 8.97103 11.5188 8.67191C11.4347 8.67257 11.3506 8.67322 11.264 8.6739C10.8771 8.67654 10.4901 8.67816 10.1032 8.67976C9.97099 8.68082 9.83877 8.68187 9.70255 8.68295C8.91577 8.68539 8.15729 8.64654 7.3772 8.54622C7.28822 8.19274 7.28822 8.19274 7.24777 7.79213C7.54665 7.36436 7.83716 7.36836 8.34606 7.36973ZM21.7434 9.17464C21.6926 9.26796 21.6419 9.36128 21.5897 9.45743C21.3377 9.82871 21.0695 10.0379 20.708 10.3058C20.5048 10.7003 20.533 11.0019 20.5785 11.4369C21.0327 12.0487 21.6742 12.3235 22.3905 12.5681C22.4759 12.5681 22.5613 12.5681 22.6493 12.5681C22.5361 13.5578 22.5361 13.5578 22.3905 13.6992C22.1832 13.7117 21.9753 13.7155 21.7676 13.7149C21.6547 13.7153 21.5417 13.7156 21.4254 13.7159C21.1239 13.7006 20.8672 13.6559 20.5785 13.5735C20.5358 13.7394 20.4931 13.9053 20.4491 14.0763C20.5223 14.1173 20.5956 14.1583 20.671 14.2005C20.766 14.2554 20.8609 14.3103 20.9587 14.3669C21.0533 14.4209 21.1479 14.4748 21.2454 14.5304C21.4845 14.7047 21.4845 14.7047 21.6139 15.0817C21.7848 15.0817 21.9556 15.0817 22.1316 15.0817C22.1396 14.9832 22.1476 14.8847 22.1559 14.7832C22.1906 14.6744 22.2253 14.5655 22.261 14.4533C22.5684 14.3198 22.5684 14.3198 22.9082 14.202C23.3381 13.7994 23.4053 13.3888 23.4259 12.8194C23.1605 12.1676 22.6471 11.8644 22.0093 11.5734C21.7928 11.4824 21.5741 11.3963 21.3551 11.3113C21.3495 11.1018 21.3498 10.8922 21.3551 10.6828C21.4845 10.5572 21.4845 10.5572 21.9051 10.5414C22.3045 10.5544 22.6512 10.5919 23.0376 10.6828C23.0803 10.5169 23.123 10.351 23.167 10.1801C22.7459 9.8962 22.7459 9.8962 22.261 9.80305C22.2477 9.7227 22.2344 9.64234 22.2206 9.55954C22.1912 9.474 22.1619 9.38846 22.1316 9.30032C22.0035 9.25885 21.8754 9.21737 21.7434 9.17464ZM12.813 11.6883C12.813 11.7713 12.813 11.8542 12.813 11.9397C14.9913 11.9397 17.1695 11.9397 19.4137 11.9397C19.3496 11.8152 19.3496 11.8152 19.2843 11.6883C17.1488 11.6883 15.0133 11.6883 12.813 11.6883ZM12.6836 12.5681C14.5629 12.5681 16.4421 12.5681 18.3783 12.5681C18.3142 12.4437 18.3142 12.4437 18.2489 12.3167C17.4979 12.3105 16.7469 12.3059 15.996 12.3029C15.7403 12.3016 15.4847 12.2999 15.2291 12.2978C14.8623 12.2947 14.4954 12.2933 14.1285 12.2922C14.0138 12.2909 13.8991 12.2896 13.7808 12.2882C13.1696 12.2581 13.1696 12.2581 12.6836 12.5681ZM12.6836 13.1965C14.7337 13.1965 16.7838 13.1965 18.896 13.1965C18.5846 12.8941 18.5141 12.9135 18.0891 12.9126C17.976 12.9118 17.8628 12.911 17.7462 12.9102C17.6238 12.9107 17.5014 12.9112 17.3753 12.9117C17.1871 12.9114 17.1871 12.9114 16.9952 12.911C16.7297 12.9108 16.4643 12.9113 16.1988 12.9124C15.7915 12.9137 15.3842 12.9124 14.9769 12.9108C14.7194 12.9109 14.4619 12.9113 14.2044 12.9117C14.0207 12.911 14.0207 12.911 13.8334 12.9102C13.7202 12.911 13.6071 12.9118 13.4905 12.9126C13.3907 12.9128 13.2909 12.913 13.188 12.9132C12.9112 12.9246 12.9112 12.9246 12.6836 13.1965ZM15.7898 16.0872C15.7044 16.2531 15.619 16.419 15.531 16.5899C15.7624 16.882 15.877 16.9611 16.259 17.014C16.3953 17.0139 16.5316 17.0139 16.6721 17.0138C16.8267 17.0146 16.9813 17.0153 17.1406 17.0162C17.3076 17.015 17.4746 17.0138 17.6468 17.0126C17.8197 17.0126 17.9926 17.0126 18.1655 17.0128C18.5277 17.0128 18.8899 17.0115 19.2521 17.0092C19.7168 17.0064 20.1814 17.0063 20.6461 17.0072C21.0031 17.0076 21.36 17.0068 21.717 17.0055C21.9718 17.0048 22.2266 17.005 22.4814 17.0051C22.6356 17.0039 22.7898 17.0027 22.9487 17.0015C23.153 17.0006 23.153 17.0006 23.3614 16.9998C23.7071 16.998 23.7071 16.998 23.9436 16.7156C23.8911 16.3659 23.8911 16.3659 23.6847 16.0872C23.4385 16.0754 23.1918 16.0724 22.9453 16.0729C22.7082 16.073 22.7082 16.073 22.4664 16.073C22.2926 16.0736 22.1188 16.0743 21.9451 16.0749C21.7682 16.0752 21.5914 16.0753 21.4146 16.0755C20.9484 16.076 20.4822 16.0772 20.0161 16.0786C19.5407 16.0799 19.0653 16.0804 18.5899 16.0811C17.6565 16.0824 16.7232 16.0846 15.7898 16.0872ZM19.9314 17.8468C19.9314 18.0127 19.9314 18.1786 19.9314 18.3495C20.1677 18.579 20.5399 18.4916 20.8571 18.4919C21.019 18.492 21.1809 18.4922 21.3477 18.4924C21.5183 18.4919 21.6889 18.4914 21.8647 18.4909C22.0348 18.4914 22.2049 18.4919 22.3801 18.4924C22.5422 18.4922 22.7043 18.492 22.8713 18.4919C23.0209 18.4917 23.1706 18.4916 23.3247 18.4914C23.6792 18.4991 23.6792 18.4991 23.9436 18.3495C23.9009 18.1836 23.8582 18.0177 23.8141 17.8468C22.5328 17.8468 21.2515 17.8468 19.9314 17.8468ZM18.5077 20.1091C18.465 20.2335 18.4223 20.3579 18.3783 20.4861C18.726 20.8237 18.9962 20.7703 19.4689 20.7756C19.5828 20.7755 19.6967 20.7754 19.8141 20.7753C19.9893 20.7761 19.9893 20.7761 20.1681 20.7769C20.4152 20.7776 20.6624 20.7777 20.9096 20.7772C21.2889 20.7768 21.668 20.7797 22.0472 20.7829C22.287 20.7832 22.5268 20.7833 22.7666 20.7831C22.9375 20.7849 22.9375 20.7849 23.1118 20.7866C23.464 20.7885 23.464 20.7885 23.9436 20.7375C24.029 20.6131 24.1144 20.4886 24.2024 20.3604C24.1384 20.236 24.1384 20.236 24.073 20.1091C22.2365 20.1091 20.3999 20.1091 18.5077 20.1091Z" fill="#020000"/>
<path d="M57.8529 14.5791C58.1927 14.569 58.5322 14.5615 58.8721 14.5556C58.9687 14.5524 59.0653 14.5492 59.1648 14.546C59.4454 14.5423 59.4454 14.5423 59.9237 14.5791C60.1897 14.9666 60.2537 15.1969 60.3458 15.6469C60.3754 15.786 60.4049 15.9251 60.4353 16.0685C60.4667 16.2173 60.498 16.3661 60.5303 16.5194C60.771 17.614 61.0358 18.6839 61.4201 19.74C61.4722 19.8841 61.4722 19.8841 61.5254 20.0311C61.7993 20.7547 62.1465 21.4364 62.5122 22.1201C63.4305 19.6392 64.0156 17.1769 64.4535 14.5791C65.1369 14.5791 65.8203 14.5791 66.5243 14.5791C67.1115 18.0005 64.7173 23.1128 62.771 25.8906C63.8646 25.8282 64.9571 25.7586 66.0491 25.6746C68.5797 25.4802 71.1036 25.3049 73.6427 25.2622C73.7922 25.2594 73.9417 25.2567 74.0957 25.2538C78.8671 25.1783 83.6023 25.5117 88.3438 26.0011C93.411 26.5162 99.0075 27.0689 103.507 24.2881C104.864 22.9707 105.338 21.2434 105.84 19.5002C106.123 18.5381 106.45 17.6082 107.288 16.9769C107.808 16.7104 108.281 16.7201 108.846 16.8414C109.759 17.2067 110.491 17.8084 111.046 18.601C111.046 18.6839 111.046 18.7669 111.046 18.8524C111.239 18.7901 111.239 18.7901 111.435 18.7267C112.317 18.6338 113.037 18.7125 113.764 19.2294C114.012 19.469 114.205 19.7077 114.412 19.9835C113.83 20.6317 113.119 21.012 112.357 21.4367C112.232 21.5076 112.106 21.5785 111.977 21.6515C111.324 22.0205 110.668 22.3852 110.011 22.7485C109.519 22.1668 109.45 21.649 109.455 20.9114C109.508 20.4954 109.672 20.1839 109.885 19.8235C110.031 19.5881 110.031 19.5881 110.14 19.2294C109.665 18.5188 109.058 17.9517 108.199 17.7605C107.755 17.8593 107.727 17.9002 107.494 18.2559C107.077 18.9397 106.881 19.6784 106.662 20.4391C105.955 22.7638 105.11 24.6541 102.854 25.9137C97.7895 28.432 91.3186 27.3303 85.9015 26.7909C83.0693 26.5109 80.2416 26.3422 77.396 26.2677C77.2315 26.2633 77.067 26.2589 76.8975 26.2545C72.4671 26.1576 68.0231 26.4827 63.6178 26.9083C63.5189 26.9179 63.4199 26.9274 63.3179 26.9373C62.1712 27.0013 62.1712 27.0013 61.1289 27.3988C60.5127 27.7601 60.0743 27.7932 59.3574 27.7916C59.215 27.7919 59.0725 27.7922 58.9257 27.7925C58.5 27.7759 58.5 27.7759 58.1513 27.7026C57.6319 27.6389 57.174 27.7088 56.6648 27.8004C56.5591 27.8185 56.4534 27.8365 56.3444 27.8551C55.9895 27.9164 55.6351 27.9796 55.2806 28.0429C55.0282 28.0871 54.7759 28.1312 54.5235 28.1753C52.9203 28.4585 51.3224 28.7656 49.7259 29.0823C49.6334 29.1006 49.541 29.1189 49.4457 29.1378C48.5203 29.3213 47.5953 29.506 46.6709 29.694C46.4067 29.7476 46.1425 29.8008 45.8783 29.8539C45.5541 29.9191 45.2301 29.9851 44.9062 30.0519C42.374 30.5594 42.374 30.5594 41.7004 30.247C41.4159 30.0381 41.4159 30.0381 41.335 29.7318C41.4496 29.2758 41.6687 29.1722 42.0631 28.907C42.3818 28.7704 42.6902 28.6497 43.0176 28.5378C43.1075 28.506 43.1974 28.4742 43.29 28.4414C44.07 28.168 44.8574 27.9166 45.6475 27.6723C46.0693 27.5265 46.4524 27.3425 46.8518 27.1474C46.9372 27.1474 47.0226 27.1474 47.1106 27.1474C47.1106 27.0645 47.1106 26.9815 47.1106 26.8961C43.7377 26.0426 40.2241 25.9237 36.7566 25.7649C36.518 25.7537 36.518 25.7537 36.2746 25.7423C34.0986 25.6452 31.9209 25.6212 29.7428 25.6103C29.4479 25.6087 29.1531 25.6064 28.8582 25.6035C28.4424 25.5998 28.0267 25.5986 27.611 25.598C27.4227 25.5957 27.4227 25.5957 27.2307 25.5933C27.114 25.5937 26.9973 25.5941 26.8771 25.5944C26.7756 25.594 26.6742 25.5935 26.5697 25.5931C26.2572 25.6213 26.2572 25.6213 25.9819 25.8279C25.495 26.0857 25.0472 26.0661 24.5071 26.0591C24.3404 26.0592 24.3404 26.0592 24.1702 26.0593C23.8039 26.059 23.4377 26.0561 23.0715 26.0531C22.8171 26.0524 22.5626 26.0519 22.3082 26.0515C21.6394 26.0501 20.9707 26.0464 20.302 26.0422C19.6192 26.0383 18.9365 26.0366 18.2537 26.0347C16.9147 26.0307 15.5757 26.0242 14.2367 26.0163C14.2573 25.9217 14.2779 25.8271 14.2992 25.7297C14.4109 25.1596 14.4246 24.582 14.4592 24.0034C14.4956 23.6283 14.4956 23.6283 14.625 23.5026C14.9953 23.4907 15.3624 23.4868 15.7327 23.4884C15.8489 23.4883 15.965 23.4883 16.0847 23.4883C16.4706 23.4884 16.8564 23.4894 17.2423 23.4904C17.5091 23.4906 17.7759 23.4908 18.0426 23.4909C18.7463 23.4914 19.4499 23.4926 20.1536 23.494C20.871 23.4953 21.5884 23.4959 22.3058 23.4965C23.7146 23.4978 25.1233 23.5 26.5321 23.5026C26.5321 23.8759 26.5321 24.2492 26.5321 24.6338C26.6896 24.6325 26.8472 24.6311 27.0095 24.6298C39.8637 24.5328 39.8637 24.5328 45.6465 25.5057C45.7564 25.524 45.8663 25.5423 45.9796 25.5611C46.7777 25.7117 47.5602 25.9501 48.146 26.519C48.2026 26.9353 48.2026 26.9353 48.146 27.3988C47.6951 27.9326 47.2032 28.1969 46.5525 28.4435C46.469 28.4767 46.3855 28.5098 46.2994 28.5439C46.0959 28.6245 45.8915 28.7031 45.6869 28.7813C46.5004 28.6803 47.2989 28.5228 48.102 28.363C48.4038 28.3036 48.7056 28.2441 49.0074 28.1847C49.1642 28.1538 49.321 28.1229 49.4826 28.091C56.8273 26.6447 56.8273 26.6447 57.9823 26.6447C57.9823 26.4788 57.9823 26.3129 57.9823 26.142C58.0731 26.1387 58.1638 26.1355 58.2573 26.1322C59.2211 26.0762 59.9769 25.9579 60.682 25.2833C61.1203 24.7873 61.1203 24.7873 61.2053 24.1571C61.0634 23.6673 60.8297 23.2571 60.5708 22.8192C59.5763 21.0587 58.8595 19.1822 58.3059 17.2499C58.2744 17.1408 58.2429 17.0318 58.2105 16.9194C58.0001 16.1431 57.9056 15.3795 57.8529 14.5791ZM111.305 19.6065C111.305 19.6894 111.305 19.7724 111.305 19.8578C111.562 19.9822 111.562 19.9822 111.823 20.1092C111.78 19.9848 111.738 19.8603 111.694 19.7321C111.565 19.6907 111.437 19.6492 111.305 19.6065ZM110.788 19.8578C110.873 20.0237 110.958 20.1896 111.046 20.3606C111.046 20.1946 111.046 20.0287 111.046 19.8578C110.961 19.8578 110.876 19.8578 110.788 19.8578ZM111.823 20.1092C111.78 20.3166 111.738 20.5239 111.694 20.7376C111.523 20.6546 111.352 20.5717 111.176 20.4862C111.251 20.7374 111.251 20.7374 111.435 20.989C111.828 21.1514 111.828 21.1514 112.211 21.2403C112.126 20.8671 112.04 20.4938 111.952 20.1092C111.91 20.1092 111.867 20.1092 111.823 20.1092Z" fill="#020000"/>
<path d="M28.7323 11.06C29.7763 11.0571 30.8203 11.0549 31.8643 11.0535C32.349 11.0529 32.8338 11.052 33.3185 11.0506C33.7859 11.0492 34.2533 11.0484 34.7208 11.0481C34.8995 11.0479 35.0782 11.0474 35.2569 11.0467C35.5064 11.0458 35.7558 11.0458 36.0053 11.0458C36.1476 11.0455 36.2899 11.0452 36.4364 11.0449C36.7566 11.06 36.7566 11.06 36.8861 11.1857C36.8861 11.7249 36.8861 12.2641 36.8861 12.8196C34.9214 12.8196 32.9567 12.8196 30.9325 12.8196C30.9325 14.1053 30.9325 15.3911 30.9325 16.7158C31.2924 16.7129 31.6522 16.7099 32.023 16.7069C32.3713 16.705 32.7195 16.7035 33.0677 16.702C33.3099 16.7007 33.5521 16.699 33.7942 16.6968C34.1422 16.6938 34.4901 16.6923 34.838 16.6912C34.9464 16.6899 35.0548 16.6886 35.1665 16.6873C35.9359 16.6872 35.9359 16.6872 36.3684 16.9671C36.3684 17.5063 36.3684 18.0455 36.3684 18.601C34.5745 18.601 32.7807 18.601 30.9325 18.601C30.9325 19.9282 30.9325 21.2554 30.9325 22.6229C31.3484 22.62 31.7644 22.617 32.1929 22.614C32.5951 22.6121 32.9973 22.6106 33.3995 22.6091C33.6793 22.6078 33.9592 22.6061 34.239 22.6039C34.6409 22.6009 35.0428 22.5994 35.4447 22.5983C35.5701 22.597 35.6955 22.5957 35.8247 22.5944C35.9412 22.5944 36.0578 22.5944 36.1779 22.5943C36.3318 22.5935 36.3318 22.5935 36.4888 22.5927C36.7566 22.6229 36.7566 22.6229 37.1449 22.8742C37.1828 23.2287 37.1828 23.2287 37.1692 23.6441C37.1639 23.8506 37.1639 23.8506 37.1586 24.0614C37.154 24.1673 37.1495 24.2733 37.1449 24.3824C36.0671 24.3853 34.9894 24.3876 33.9116 24.389C33.4112 24.3896 32.9108 24.3905 32.4104 24.3919C31.9279 24.3933 31.4454 24.394 30.9629 24.3944C30.7784 24.3946 30.5939 24.3951 30.4094 24.3957C30.1519 24.3966 29.8943 24.3967 29.6368 24.3967C29.4899 24.397 29.3431 24.3973 29.1917 24.3976C28.8617 24.3824 28.8617 24.3824 28.7323 24.2568C28.7199 24.0851 28.7165 23.9128 28.7167 23.7406C28.7165 23.6294 28.7164 23.5182 28.7162 23.4036C28.7167 23.2807 28.7171 23.1577 28.7176 23.0311C28.7176 22.9023 28.7176 22.7736 28.7175 22.641C28.7176 22.2132 28.7186 21.7855 28.7197 21.3577C28.7199 21.062 28.7201 20.7663 28.7202 20.4706C28.7207 19.6906 28.722 18.9106 28.7234 18.1306C28.7247 17.3354 28.7253 16.5402 28.726 15.7449C28.7274 14.1833 28.7296 12.6217 28.7323 11.06Z" fill="#020000"/>
<path d="M85.5988 15.2409C86.5959 16.2768 86.4743 17.6444 86.4684 18.9697C86.4682 19.1247 86.468 19.2796 86.4678 19.4393C86.4671 19.9323 86.4655 20.4253 86.4638 20.9183C86.4631 21.2533 86.4626 21.5884 86.4621 21.9235C86.4607 22.7431 86.4584 23.5628 86.4558 24.3824C85.8578 24.3824 85.2599 24.3824 84.6438 24.3824C84.5157 24.1335 84.3875 23.8847 84.2555 23.6283C84.1835 23.6798 84.1114 23.7313 84.0371 23.7844C82.9317 24.5424 81.9844 24.7524 80.6316 24.6338C79.8882 24.4933 79.2149 24.3084 78.6903 23.754C78.0258 22.6895 77.8985 21.6503 78.0937 20.4185C78.307 19.6458 78.7625 19.1354 79.4668 18.7267C80.4516 18.265 81.4437 18.3053 82.5164 18.326C82.684 18.3277 82.8516 18.3294 83.0242 18.3312C83.4347 18.3356 83.8451 18.3418 84.2555 18.3496C84.2155 18.106 84.1749 17.8625 84.1342 17.6191C84.1117 17.4835 84.0892 17.3479 84.0659 17.2082C84.0046 16.8352 84.0046 16.8352 83.8673 16.4644C83.222 16.2254 82.6607 16.183 81.9668 16.1885C81.8762 16.1888 81.7855 16.1892 81.6922 16.1895C81.406 16.1909 81.12 16.1941 80.8339 16.1973C80.6385 16.1986 80.4431 16.1997 80.2477 16.2007C79.7717 16.2035 79.2957 16.2078 78.8197 16.213C78.664 15.9107 78.6772 15.7166 78.6822 15.3803C78.6833 15.2776 78.6845 15.1749 78.6857 15.0691C78.6872 14.9903 78.6887 14.9116 78.6903 14.8305C80.7981 14.2322 83.7565 13.7383 85.5988 15.2409ZM80.3 20.3605C80.0129 20.9424 80.0015 21.4878 80.1139 22.1201C80.3554 22.581 80.6366 22.8339 81.1493 22.9999C82.4037 23.1418 83.2288 22.7848 84.2555 22.1201C84.3092 21.8651 84.3092 21.8651 84.2935 21.5732C84.2922 21.4663 84.2909 21.3593 84.2897 21.2492C84.2864 21.1374 84.2832 21.0256 84.2798 20.9104C84.278 20.7976 84.2763 20.6849 84.2745 20.5687C84.2699 20.2898 84.2635 20.011 84.2555 19.7321C83.8699 19.7218 83.4845 19.7144 83.0988 19.7086C82.9375 19.7038 82.9375 19.7038 82.773 19.699C81.8679 19.6887 81.0287 19.8083 80.3 20.3605Z" fill="#020000"/>
<path d="M46.2537 15.2409C47.2507 16.2768 47.1292 17.6444 47.1233 18.9697C47.1231 19.1247 47.1229 19.2796 47.1227 19.4393C47.122 19.9323 47.1204 20.4253 47.1187 20.9183C47.118 21.2533 47.1175 21.5884 47.1169 21.9235C47.1155 22.7431 47.1133 23.5628 47.1106 24.3824C46.5127 24.3824 45.9147 24.3824 45.2987 24.3824C45.1705 24.1335 45.0424 23.8847 44.9104 23.6283C44.8383 23.6798 44.7662 23.7313 44.692 23.7844C43.5866 24.5424 42.6393 24.7524 41.2865 24.6338C40.543 24.4933 39.8697 24.3084 39.3451 23.754C38.6806 22.6895 38.5534 21.6503 38.7486 20.4185C38.9618 19.6458 39.4173 19.1354 40.1217 18.7267C41.1064 18.265 42.0986 18.3053 43.1712 18.326C43.3388 18.3277 43.5064 18.3294 43.6791 18.3312C44.0896 18.3356 44.5 18.3418 44.9104 18.3496C44.8703 18.106 44.8298 17.8625 44.7891 17.6191C44.7665 17.4835 44.744 17.3479 44.7208 17.2082C44.6595 16.8352 44.6595 16.8352 44.5221 16.4644C43.8769 16.2254 43.3156 16.183 42.6217 16.1885C42.5311 16.1888 42.4404 16.1892 42.347 16.1895C42.0609 16.1909 41.7748 16.1941 41.4887 16.1973C41.2933 16.1986 41.0979 16.1997 40.9025 16.2007C40.4265 16.2035 39.9505 16.2078 39.4746 16.213C39.3189 15.9107 39.3321 15.7166 39.337 15.3803C39.3382 15.2776 39.3394 15.1749 39.3406 15.0691C39.3421 14.9903 39.3436 14.9116 39.3451 14.8305C41.453 14.2322 44.4114 13.7383 46.2537 15.2409ZM40.9548 20.3605C40.6677 20.9424 40.6563 21.4878 40.7688 22.1201C41.0103 22.581 41.2915 22.8339 41.8042 22.9999C43.0586 23.1418 43.8837 22.7848 44.9104 22.1201C44.9641 21.8651 44.9641 21.8651 44.9483 21.5732C44.9471 21.4663 44.9458 21.3593 44.9445 21.2492C44.9413 21.1374 44.938 21.0256 44.9347 20.9104C44.9329 20.7976 44.9312 20.6849 44.9294 20.5687C44.9248 20.2898 44.9184 20.011 44.9104 19.7321C44.5247 19.7218 44.1394 19.7144 43.7537 19.7086C43.5924 19.7038 43.5924 19.7038 43.4278 19.699C42.5227 19.6887 41.6835 19.8083 40.9548 20.3605Z" fill="#020000"/>
<path d="M68.7246 11.06C69.7348 11.0571 70.7451 11.0549 71.7553 11.0535C72.2244 11.0529 72.6934 11.052 73.1625 11.0506C73.6148 11.0492 74.0671 11.0484 74.5194 11.0481C74.7768 11.0478 75.0341 11.0468 75.2914 11.0458C75.4469 11.0458 75.6023 11.0458 75.7625 11.0458C75.969 11.0453 75.969 11.0453 76.1797 11.0449C76.49 11.06 76.49 11.06 76.6195 11.1857C76.6195 11.7249 76.6195 12.2641 76.6195 12.8196C74.7402 12.8196 72.861 12.8196 70.9248 12.8196C70.9248 14.1468 70.9248 15.474 70.9248 16.8415C71.2783 16.84 71.6318 16.8385 71.9961 16.837C72.337 16.8361 72.678 16.8353 73.0189 16.8346C73.2566 16.8339 73.4942 16.8331 73.7319 16.832C74.0727 16.8305 74.4136 16.8297 74.7544 16.8292C74.8613 16.8285 74.9683 16.8279 75.0784 16.8272C75.3333 16.8272 75.5882 16.8337 75.8429 16.8415C76.2711 17.2572 75.9723 18.013 75.9723 18.601C74.3066 18.601 72.6409 18.601 70.9248 18.601C70.9248 20.5089 70.9248 22.4168 70.9248 24.3824C70.2414 24.3824 69.558 24.3824 68.854 24.3824C68.7246 24.2568 68.7246 24.2568 68.7086 24.0352C68.7087 23.938 68.7089 23.8408 68.709 23.7406C68.7088 23.6294 68.7086 23.5182 68.7085 23.4036C68.7089 23.2807 68.7094 23.1577 68.7099 23.0311C68.7098 22.9023 68.7098 22.7736 68.7098 22.641C68.7099 22.2132 68.7109 21.7855 68.7119 21.3577C68.7122 21.062 68.7123 20.7663 68.7125 20.4706C68.713 19.6906 68.7142 18.9106 68.7157 18.1306C68.717 17.3354 68.7176 16.5402 68.7182 15.7449C68.7196 14.1833 68.7218 12.6217 68.7246 11.06Z" fill="#020000"/>
<path d="M54.8356 14.4929C54.9241 14.5077 55.0125 14.5224 55.1035 14.5377C55.5785 14.6284 55.8762 14.7027 56.1703 15.082C56.2083 15.3663 56.2083 15.3663 56.1946 15.6711C56.1894 15.8235 56.1894 15.8235 56.184 15.979C56.1772 16.0949 56.1772 16.0949 56.1703 16.2132C56.0483 16.2112 55.9262 16.2092 55.8004 16.2072C55.3457 16.2007 54.8911 16.196 54.4364 16.1924C54.2399 16.1906 54.0435 16.188 53.847 16.1847C53.564 16.1801 53.281 16.178 52.9979 16.1763C52.8278 16.1744 52.6577 16.1724 52.4824 16.1703C51.9998 16.2159 51.756 16.2946 51.3816 16.5902C51.2538 17.0778 51.1855 17.4997 51.3816 17.9727C51.6085 18.1064 51.6085 18.1064 51.8953 18.1745C52.0007 18.2045 52.1062 18.2346 52.2148 18.2655C52.6302 18.3711 53.0464 18.4721 53.4643 18.568C55.7436 19.0978 55.7436 19.0978 56.4292 20.1172C56.7611 21.0639 56.8107 22.1092 56.4373 23.0565C55.9851 23.8148 55.397 24.2642 54.5409 24.523C53.9088 24.6662 53.29 24.6719 52.6435 24.6653C52.5242 24.6646 52.4048 24.6638 52.2818 24.663C49.8576 24.6289 49.8576 24.6289 49.1814 24.0055C49.1308 23.6938 49.1308 23.6938 49.149 23.3535C49.1537 23.2403 49.1584 23.127 49.1632 23.0103C49.1722 22.8808 49.1722 22.8808 49.1814 22.7487C49.3113 22.7506 49.4412 22.7526 49.5751 22.7547C50.0587 22.7615 50.5423 22.7658 51.0259 22.7694C51.2349 22.7713 51.444 22.7738 51.653 22.7771C51.954 22.7817 52.255 22.7838 52.5561 22.7855C52.649 22.7874 52.7419 22.7894 52.8376 22.7914C53.4107 22.7916 53.775 22.7175 54.229 22.3716C54.3527 22.1074 54.3527 22.1074 54.3665 21.8139C54.3848 21.6703 54.3848 21.6703 54.4034 21.5238C54.3377 21.1102 54.1819 20.9892 53.8407 20.7377C53.5139 20.6148 53.2057 20.5141 52.87 20.4235C52.6841 20.3697 52.4982 20.3159 52.3124 20.262C51.982 20.1686 51.6512 20.0763 51.3205 19.9841C50.5282 19.7497 49.8368 19.5024 49.3108 18.8525C48.8752 18.035 48.8956 16.8889 49.1455 16.0099C49.5572 15.1521 50.2245 14.775 51.1228 14.4536C52.3615 14.2123 53.5992 14.2775 54.8356 14.4929Z" fill="#020000"/>
<path d="M98.2334 12.0656C98.7099 12.0617 98.7099 12.0617 99.196 12.0578C99.2962 12.0566 99.3964 12.0555 99.4996 12.0543C99.7247 12.0534 99.9498 12.0593 100.175 12.0656C100.304 12.1913 100.304 12.1913 100.319 12.4248C100.318 12.5242 100.318 12.6235 100.317 12.7259C100.316 12.8333 100.316 12.9406 100.316 13.0512C100.315 13.164 100.313 13.2769 100.312 13.3931C100.312 13.5065 100.311 13.6198 100.311 13.7366C100.309 14.0175 100.307 14.2984 100.304 14.5793C100.552 14.5727 100.552 14.5727 100.805 14.566C101.021 14.5625 101.237 14.5591 101.453 14.5557C101.562 14.5525 101.671 14.5494 101.783 14.5461C101.887 14.5449 101.992 14.5437 102.099 14.5425C102.195 14.5405 102.291 14.5385 102.391 14.5365C102.471 14.5506 102.551 14.5647 102.634 14.5793C102.893 14.9563 102.893 14.9563 102.893 16.2132C102.039 16.2132 101.184 16.2132 100.304 16.2132C100.316 17.0833 100.33 17.9535 100.345 18.8236C100.35 19.1197 100.355 19.4159 100.359 19.712C100.365 20.1372 100.372 20.5624 100.38 20.9876C100.382 21.1204 100.383 21.2532 100.385 21.3899C100.387 21.5132 100.39 21.6365 100.392 21.7635C100.394 21.8721 100.396 21.9806 100.398 22.0925C100.417 22.4075 100.417 22.4075 100.692 22.7487C101.113 22.8082 101.113 22.8082 101.59 22.8115C102.436 22.8319 102.436 22.8319 102.754 23.03C102.934 23.3177 102.932 23.5063 102.917 23.8405C102.912 23.9929 102.912 23.9929 102.906 24.1484C102.902 24.2256 102.897 24.3029 102.893 24.3826C101.728 24.7373 100.418 24.8319 99.2612 24.3973C98.7631 24.1189 98.3358 23.6927 98.1608 23.1532C98.0952 22.8311 98.0885 22.5343 98.0893 22.2058C98.0893 22.0725 98.0893 21.9392 98.0893 21.8018C98.09 21.6587 98.0907 21.5156 98.0914 21.3681C98.0915 21.221 98.0917 21.0738 98.0919 20.9222C98.0926 20.4523 98.0943 19.9823 98.0959 19.5123C98.0966 19.1937 98.0971 18.8751 98.0977 18.5565C98.0991 17.7754 98.1013 16.9943 98.104 16.2132C97.9385 16.2183 97.773 16.2235 97.6025 16.2289C97.3204 16.2377 97.3204 16.2377 97.0686 16.2132C96.8097 15.9618 96.8097 15.9618 96.7845 15.6348C96.7875 15.5094 96.7905 15.384 96.7936 15.2548C96.7959 15.1288 96.7982 15.0027 96.8006 14.8729C96.8037 14.776 96.8067 14.6791 96.8097 14.5793C97.2368 14.5793 97.664 14.5793 98.104 14.5793C98.1467 13.7498 98.1894 12.9203 98.2334 12.0656Z" fill="#020000"/>
<path d="M95.403 14.7329C95.6449 14.9565 95.6449 14.9565 95.6955 15.2682C95.6895 15.3805 95.6835 15.4928 95.6773 15.6085C95.6726 15.7217 95.6679 15.835 95.6631 15.9516C95.6571 16.038 95.6511 16.1243 95.6449 16.2133C95.5556 16.2113 95.4662 16.2094 95.3742 16.2073C94.9656 16.1994 94.5571 16.1946 94.1484 16.1897C94.0079 16.1866 93.8673 16.1834 93.7225 16.1802C92.9258 16.1731 92.3256 16.1912 91.6328 16.5904C90.8993 17.3775 90.9584 18.3878 90.9533 19.3789C90.9506 19.5051 90.9479 19.6312 90.9452 19.7612C90.9399 20.7455 91.0331 21.5976 91.6975 22.3718C92.1673 22.7368 92.5067 22.7637 93.0893 22.7567C93.2212 22.7557 93.3531 22.7547 93.4889 22.7537C93.6953 22.7513 93.6953 22.7513 93.9058 22.7488C94.1783 22.7456 94.4508 22.743 94.7233 22.741C94.8442 22.7395 94.965 22.7381 95.0896 22.7366C95.3861 22.7488 95.3861 22.7488 95.6449 22.8745C95.7948 23.311 95.7832 23.6739 95.7743 24.1313C94.2648 24.7028 92.5257 24.9436 90.9533 24.422C89.888 23.9624 89.4381 23.4281 88.9482 22.4106C88.1953 20.4873 88.3157 17.9735 89.1656 16.0984C89.5579 15.3504 90.0959 14.8925 90.9047 14.5902C92.2306 14.1897 94.1486 14.0346 95.403 14.7329Z" fill="#020000"/>
<path d="M114.412 20.2349C114.827 20.7211 115.186 21.2272 115.536 21.7588C115.588 21.8367 115.64 21.9146 115.694 21.9949C116.222 22.7942 116.341 23.4428 116.223 24.3824C115.909 25.1468 115.375 25.6431 114.646 26.0477C113.799 26.267 112.964 26.251 112.194 25.8204C111.256 25.1168 110.706 23.9855 110.14 22.9999C110.695 22.393 111.339 22.0222 112.058 21.6174C112.282 21.4892 112.507 21.3609 112.732 21.2325C112.839 21.1711 112.947 21.1097 113.058 21.0464C113.515 20.7835 113.963 20.51 114.412 20.2349Z" fill="#020000"/>
<path d="M106.775 12.1913C106.818 12.3987 106.861 12.6061 106.905 12.8197C106.52 12.8197 106.136 12.8197 105.74 12.8197C105.907 13.1438 106.048 13.1609 106.387 13.2989C106.888 13.5291 106.888 13.5291 107.034 13.9194C107.034 14.0128 107.034 14.1061 107.034 14.2022C107.248 14.2437 107.461 14.2852 107.681 14.3279C107.724 14.4523 107.767 14.5768 107.811 14.705C107.683 14.8294 107.555 14.9538 107.423 15.082C107.326 15.0354 107.23 14.9887 107.131 14.9406C106.789 14.7919 106.789 14.7919 106.533 14.9406C106.442 14.9873 106.351 15.0339 106.258 15.082C105.777 15.1066 105.422 15.1046 104.963 14.9563C104.921 14.749 104.878 14.5416 104.834 14.3279C105.261 14.2864 105.688 14.245 106.128 14.2022C105.755 13.9537 105.755 13.9537 105.408 13.7702C105.093 13.5738 105.093 13.5738 104.834 13.1968C104.892 12.5125 104.892 12.5125 105.222 12.1913C105.732 11.9819 106.246 12.1141 106.775 12.1913Z" fill="#020000"/>
<path d="M106.905 29.4097C106.905 29.4926 106.905 29.5756 106.905 29.661C106.99 29.6196 107.076 29.5781 107.164 29.5354C107.617 29.5118 107.617 29.5118 108.07 29.5354C108.329 29.7867 108.329 29.7867 108.354 30.2237C108.352 30.3975 108.349 30.5713 108.345 30.7451C108.344 30.8338 108.342 30.9226 108.341 31.0141C108.338 31.2334 108.333 31.4527 108.329 31.672C107.987 31.672 107.645 31.672 107.293 31.672C107.25 31.1328 107.208 30.5936 107.164 30.0381C106.997 30.361 106.992 30.6371 106.961 30.9964C106.951 31.1225 106.94 31.2485 106.929 31.3784C106.921 31.4753 106.913 31.5721 106.905 31.672C106.563 31.672 106.222 31.672 105.869 31.672C105.869 30.9669 105.869 30.2618 105.869 29.5354C106.517 29.4097 106.517 29.4097 106.905 29.4097Z" fill="#020000"/>
<path d="M87.2323 29.4097C87.2323 29.4926 87.2323 29.5756 87.2323 29.661C87.3177 29.6196 87.4031 29.5781 87.4911 29.5354C87.9441 29.5118 87.9441 29.5118 88.3971 29.5354C88.656 29.7867 88.656 29.7867 88.6812 30.2237C88.6795 30.3975 88.6764 30.5713 88.6721 30.7451C88.671 30.8338 88.6698 30.9226 88.6686 31.0141C88.6656 31.2334 88.6609 31.4527 88.656 31.672C88.3143 31.672 87.9726 31.672 87.6206 31.672C87.5779 31.1328 87.5352 30.5936 87.4911 30.0381C87.3249 30.361 87.319 30.6371 87.2889 30.9964C87.2781 31.1225 87.2672 31.2485 87.2561 31.3784C87.2482 31.4753 87.2404 31.5721 87.2323 31.672C86.8906 31.672 86.5489 31.672 86.1969 31.672C86.1969 30.9669 86.1969 30.2618 86.1969 29.5354C86.844 29.4097 86.844 29.4097 87.2323 29.4097Z" fill="#020000"/>
<path d="M73.125 29.4097C73.125 30.0318 73.125 30.6539 73.125 31.2949C73.2104 31.2534 73.2958 31.212 73.3839 31.1692C73.4446 30.7864 73.4446 30.7864 73.4647 30.3444C73.4744 30.1939 73.4841 30.0434 73.4941 29.8883C73.5004 29.7719 73.5067 29.6554 73.5133 29.5354C73.855 29.4939 74.1966 29.4524 74.5487 29.4097C74.5487 30.1562 74.5487 30.9028 74.5487 31.672C74.191 31.6797 73.8333 31.6875 73.4647 31.6955C73.296 31.7007 73.296 31.7007 73.1238 31.7059C72.8651 31.7087 72.6064 31.6907 72.3485 31.672C72.026 31.2023 72.0629 30.95 72.0734 30.3916C72.0758 30.2317 72.0781 30.0718 72.0805 29.907C72.0835 29.7844 72.0865 29.6617 72.0896 29.5354C72.4472 29.4603 72.7575 29.4097 73.125 29.4097Z" fill="#020000"/>
<path d="M107.423 12.191C107.795 12.1674 107.795 12.1674 108.199 12.191C108.517 12.6545 108.589 13.0327 108.717 13.5735C108.91 13.1183 109.078 12.6591 109.235 12.191C109.448 12.191 109.662 12.191 109.882 12.191C110.02 12.5954 110.008 12.6755 109.887 13.0634C109.858 13.1575 109.829 13.2515 109.799 13.3484C109.767 13.446 109.736 13.5437 109.704 13.6442C109.673 13.7423 109.643 13.8404 109.612 13.9415C109.387 14.6599 109.387 14.6599 109.235 14.956C108.936 14.956 108.637 14.956 108.329 14.956C107.862 14.0661 107.628 13.1665 107.423 12.191Z" fill="#020000"/>
<path d="M104.964 29.5357C105.368 29.795 105.368 29.795 105.611 30.1642C105.711 30.7099 105.676 30.9451 105.368 31.4131C104.801 31.7764 104.33 31.7849 103.669 31.6724C103.33 31.4917 103.33 31.4917 103.152 31.1696C103.056 30.6327 103.062 30.2007 103.33 29.7164C103.864 29.432 104.369 29.4294 104.964 29.5357ZM104.316 29.6614C104.143 29.8011 104.143 29.8011 104.174 30.1568C104.176 30.307 104.177 30.4572 104.179 30.6119C104.18 30.7624 104.181 30.9129 104.182 31.068C104.184 31.1845 104.185 31.301 104.187 31.421C104.315 31.4832 104.315 31.4832 104.446 31.5467C104.614 31.2197 104.597 30.9689 104.6 30.6041C104.601 30.4809 104.603 30.3578 104.605 30.2309C104.608 29.8914 104.608 29.8914 104.316 29.6614Z" fill="#020000"/>
<path d="M85.2909 29.5357C85.6954 29.795 85.6954 29.795 85.9381 30.1642C86.0384 30.7099 86.003 30.9451 85.6954 31.4131C85.1286 31.7764 84.6575 31.7849 83.9967 31.6724C83.6569 31.4917 83.6569 31.4917 83.479 31.1696C83.3836 30.6327 83.3894 30.2007 83.6569 29.7164C84.1919 29.432 84.6965 29.4294 85.2909 29.5357ZM84.6438 29.6614C84.4705 29.8011 84.4705 29.8011 84.5017 30.1568C84.5033 30.307 84.5048 30.4572 84.5063 30.6119C84.5075 30.7624 84.5086 30.9129 84.5098 31.068C84.5113 31.1845 84.5128 31.301 84.5144 31.421C84.6425 31.4832 84.6425 31.4832 84.7732 31.5467C84.9416 31.2197 84.9245 30.9689 84.9269 30.6041C84.9288 30.4809 84.9306 30.3578 84.9325 30.2309C84.9359 29.8914 84.9359 29.8914 84.6438 29.6614Z" fill="#020000"/>
<path d="M113.635 29.52C113.843 29.5195 113.843 29.5195 114.056 29.519C114.411 29.5357 114.411 29.5357 114.67 29.6614C114.722 30.0842 114.736 30.5047 114.755 30.93C114.77 31.0506 114.785 31.1711 114.8 31.2953C114.885 31.3368 114.971 31.3782 115.059 31.421C115.059 31.5039 115.059 31.5869 115.059 31.6723C114.678 31.6825 114.298 31.69 113.918 31.6959C113.81 31.6991 113.702 31.7022 113.591 31.7055C113.435 31.7073 113.435 31.7073 113.277 31.7092C113.133 31.7121 113.133 31.7121 112.987 31.7151C112.655 31.6601 112.54 31.5542 112.341 31.2953C112.374 30.8579 112.475 30.6605 112.729 30.2898C112.689 29.9572 112.689 29.9572 112.6 29.6614C112.953 29.4898 113.241 29.5191 113.635 29.52ZM113.247 29.6614C113.204 29.8688 113.161 30.0762 113.117 30.2898C113.374 30.2563 113.374 30.2563 113.635 30.1641C113.678 30.0397 113.72 29.9153 113.764 29.7871C113.594 29.7456 113.423 29.7041 113.247 29.6614ZM113.635 30.5412C113.55 30.6241 113.464 30.7071 113.376 30.7926C113.418 31.1197 113.418 31.1197 113.506 31.421C113.802 31.1899 113.802 31.1899 113.781 30.8397C113.773 30.6919 113.773 30.6919 113.764 30.5412C113.722 30.5412 113.679 30.5412 113.635 30.5412Z" fill="#020000"/>
<path d="M78.1726 29.52C78.3808 29.5195 78.3808 29.5195 78.5932 29.519C78.9491 29.5357 78.9491 29.5357 79.208 29.6614C79.2595 30.0842 79.2739 30.5047 79.2929 30.93C79.3076 31.0506 79.3223 31.1711 79.3374 31.2953C79.4228 31.3368 79.5082 31.3782 79.5962 31.421C79.5962 31.5039 79.5962 31.5869 79.5962 31.6723C79.216 31.6825 78.836 31.69 78.4557 31.6959C78.3478 31.6991 78.24 31.7022 78.1288 31.7055C77.9731 31.7073 77.9731 31.7073 77.8141 31.7092C77.6708 31.7121 77.6708 31.7121 77.5245 31.7151C77.1931 31.6601 77.0775 31.5542 76.8783 31.2953C76.9121 30.8579 77.0121 30.6605 77.2666 30.2898C77.2262 29.9572 77.2262 29.9572 77.1372 29.6614C77.4906 29.4898 77.7786 29.5191 78.1726 29.52ZM77.7843 29.6614C77.7416 29.8688 77.6989 30.0762 77.6549 30.2898C77.9118 30.2563 77.9118 30.2563 78.1726 30.1641C78.2153 30.0397 78.258 29.9153 78.302 29.7871C78.1312 29.7456 77.9603 29.7041 77.7843 29.6614ZM78.1726 30.5412C78.0872 30.6241 78.0017 30.7071 77.9137 30.7926C77.9552 31.1197 77.9552 31.1197 78.0431 31.421C78.3392 31.1899 78.3392 31.1899 78.3182 30.8397C78.3102 30.6919 78.3102 30.6919 78.302 30.5412C78.2593 30.5412 78.2166 30.5412 78.1726 30.5412Z" fill="#020000"/>
<path d="M66.6538 29.52C66.862 29.5195 66.862 29.5195 67.0744 29.519C67.4303 29.5357 67.4303 29.5357 67.6892 29.6614C67.7407 30.0842 67.7551 30.5047 67.7741 30.93C67.7888 31.0506 67.8035 31.1711 67.8186 31.2953C67.904 31.3368 67.9894 31.3782 68.0774 31.421C68.0774 31.5039 68.0774 31.5869 68.0774 31.6723C67.6972 31.6825 67.3172 31.69 66.9369 31.6959C66.829 31.6991 66.7212 31.7022 66.61 31.7055C66.4543 31.7073 66.4543 31.7073 66.2953 31.7092C66.152 31.7121 66.152 31.7121 66.0057 31.7151C65.6743 31.6601 65.5587 31.5542 65.3595 31.2953C65.3933 30.8579 65.4933 30.6605 65.7478 30.2898C65.7074 29.9572 65.7074 29.9572 65.6184 29.6614C65.9718 29.4898 66.2598 29.5191 66.6538 29.52ZM66.2655 29.6614C66.2228 29.8688 66.1801 30.0762 66.1361 30.2898C66.393 30.2563 66.393 30.2563 66.6538 30.1641C66.6965 30.0397 66.7392 29.9153 66.7832 29.7871C66.6124 29.7456 66.4415 29.7041 66.2655 29.6614ZM66.6538 30.5412C66.5684 30.6241 66.4829 30.7071 66.3949 30.7926C66.4364 31.1197 66.4364 31.1197 66.5244 31.421C66.8204 31.1899 66.8204 31.1899 66.7994 30.8397C66.7914 30.6919 66.7914 30.6919 66.7832 30.5412C66.7405 30.5412 66.6978 30.5412 66.6538 30.5412Z" fill="#020000"/>
<path d="M90.5974 28.7812C91.3234 28.7812 92.0495 28.7812 92.7976 28.7812C92.7976 28.8642 92.7976 28.9472 92.7976 29.0326C92.4132 29.0326 92.0288 29.0326 91.6327 29.0326C91.6327 29.3229 91.6327 29.6133 91.6327 29.9124C91.9744 29.9124 92.3161 29.9124 92.6681 29.9124C92.6681 29.9953 92.6681 30.0783 92.6681 30.1638C92.3265 30.1638 91.9848 30.1638 91.6327 30.1638C91.6327 30.5785 91.6327 30.9933 91.6327 31.4206C92.1026 31.4206 92.5724 31.4206 93.0564 31.4206C93.0564 31.5035 93.0564 31.5865 93.0564 31.672C92.2449 31.672 91.4334 31.672 90.5974 31.672C90.5974 30.718 90.5974 29.7641 90.5974 28.7812Z" fill="#020000"/>
<path d="M63.0299 28.7812C63.7559 28.7812 64.482 28.7812 65.2301 28.7812C65.2301 28.8642 65.2301 28.9472 65.2301 29.0326C64.8457 29.0326 64.4613 29.0326 64.0653 29.0326C64.0653 29.3644 64.0653 29.6962 64.0653 30.0381C64.4069 30.0381 64.7486 30.0381 65.1007 30.0381C65.1007 30.121 65.1007 30.204 65.1007 30.2894C64.759 30.2894 64.4173 30.2894 64.0653 30.2894C64.0653 30.7457 64.0653 31.2019 64.0653 31.672C63.7236 31.672 63.3819 31.672 63.0299 31.672C63.0299 30.718 63.0299 29.7641 63.0299 28.7812Z" fill="#020000"/>
<path d="M96.1626 29.5357C96.4862 29.7478 96.4862 29.7478 96.6803 30.0384C96.7127 30.3841 96.7127 30.3841 96.6803 30.6669C96.2959 30.6669 95.9115 30.6669 95.5155 30.6669C95.6009 30.8742 95.6863 31.0816 95.7743 31.2953C96.1986 31.2008 96.1986 31.2008 96.4215 30.7925C96.5069 30.834 96.5923 30.8755 96.6803 30.9182C96.6318 31.2246 96.6318 31.2246 96.5509 31.5466C96.2352 31.6999 96.0134 31.6977 95.6611 31.7037C95.5493 31.707 95.4375 31.7102 95.3224 31.7136C94.9252 31.6631 94.7565 31.5759 94.4801 31.2953C94.3737 30.8686 94.3981 30.4688 94.4801 30.0384C94.9485 29.4414 95.444 29.4471 96.1626 29.5357ZM95.5155 29.9128C95.5155 30.0787 95.5155 30.2446 95.5155 30.4155C95.6436 30.4155 95.7718 30.4155 95.9038 30.4155C95.8611 30.2496 95.8183 30.0837 95.7743 29.9128C95.6889 29.9128 95.6035 29.9128 95.5155 29.9128Z" fill="#020000"/>
<path d="M4.59459 16.441C4.72088 16.4395 4.84718 16.4379 4.9773 16.4363C5.15823 16.436 5.15823 16.436 5.34282 16.4356C5.45369 16.4351 5.56455 16.4346 5.67877 16.434C5.95355 16.4646 5.95355 16.4646 6.2124 16.7159C6.22857 17.0459 6.22857 17.0459 6.2124 17.3444C5.70964 17.6716 5.17633 17.6329 4.59459 17.6271C4.49632 17.6281 4.39805 17.6291 4.29681 17.6301C3.7963 17.6284 3.40027 17.62 2.97678 17.3444C2.97678 17.0955 2.97678 16.8467 2.97678 16.5903C3.46476 16.3533 4.05767 16.4414 4.59459 16.441Z" fill="#020000"/>
<path d="M94.2212 28.6558C94.2212 29.6512 94.2212 30.6466 94.2212 31.6722C93.8796 31.6722 93.5379 31.6722 93.1858 31.6722C93.1858 30.7182 93.1858 29.7643 93.1858 28.7814C93.9624 28.6558 93.9624 28.6558 94.2212 28.6558Z" fill="#020000"/>
<path d="M111.823 29.5356C112.053 29.7275 112.053 29.7275 112.211 29.9126C112.169 30.0371 112.126 30.1615 112.082 30.2897C111.954 30.3312 111.826 30.3726 111.694 30.4154C111.608 30.208 111.523 30.0006 111.435 29.7869C111.307 29.8492 111.307 29.8492 111.176 29.9126C111.055 30.4192 111.034 30.9023 111.046 31.4208C111.26 31.3793 111.474 31.3379 111.694 31.2951C111.736 31.0878 111.779 30.8804 111.823 30.6667C111.951 30.7082 112.079 30.7497 112.211 30.7924C112.236 31.0909 112.236 31.0909 112.211 31.4208C111.796 31.6895 111.665 31.7094 111.184 31.7115C111.073 31.7136 110.963 31.7157 110.849 31.7178C110.457 31.6619 110.285 31.5723 110.011 31.2951C109.905 30.8683 109.93 30.4688 110.011 30.0383C110.456 29.4532 111.118 29.3934 111.823 29.5356Z" fill="#020000"/>
<path d="M102.488 29.4649C102.589 29.4777 102.69 29.4905 102.795 29.5037C102.87 29.5142 102.945 29.5247 103.022 29.5356C103.022 29.7844 103.022 30.0333 103.022 30.2897C102.766 30.3312 102.51 30.3726 102.246 30.4154C102.203 30.8301 102.16 31.2449 102.116 31.6722C101.774 31.6722 101.433 31.6722 101.081 31.6722C101.081 30.9671 101.081 30.262 101.081 29.5356C101.954 29.3942 101.954 29.3942 102.488 29.4649ZM102.246 29.9126C102.375 30.164 102.375 30.164 102.375 30.164L102.246 29.9126Z" fill="#020000"/>
<path d="M98.8805 29.5356C99.1101 29.7275 99.1101 29.7275 99.2688 29.9126C99.2261 30.0371 99.1834 30.1615 99.1394 30.2897C99.0112 30.3312 98.8831 30.3726 98.7511 30.4154C98.6657 30.208 98.5803 30.0006 98.4923 29.7869C98.3641 29.8492 98.3641 29.8492 98.2334 29.9126C98.1121 30.4192 98.0913 30.9023 98.104 31.4208C98.3175 31.3793 98.5311 31.3379 98.7511 31.2951C98.7938 31.0878 98.8365 30.8804 98.8805 30.6667C99.0087 30.7082 99.1368 30.7497 99.2688 30.7924C99.2931 31.0909 99.2931 31.0909 99.2688 31.4208C98.8538 31.6895 98.722 31.7094 98.2415 31.7115C98.1309 31.7136 98.0203 31.7157 97.9063 31.7178C97.5144 31.6619 97.3427 31.5723 97.0686 31.2951C96.9622 30.8683 96.9873 30.4688 97.0686 30.0383C97.5133 29.4532 98.176 29.3934 98.8805 29.5356Z" fill="#020000"/>
<path d="M81.5376 29.5356C81.7671 29.7275 81.7671 29.7275 81.9259 29.9126C81.8832 30.0371 81.8405 30.1615 81.7965 30.2897C81.6683 30.3312 81.5402 30.3726 81.4082 30.4154C81.3228 30.208 81.2373 30.0006 81.1493 29.7869C81.0212 29.8492 81.0212 29.8492 80.8905 29.9126C80.7692 30.4192 80.7483 30.9023 80.7611 31.4208C80.9746 31.3793 81.1882 31.3379 81.4082 31.2951C81.4509 31.0878 81.4936 30.8804 81.5376 30.6667C81.6657 30.7082 81.7939 30.7497 81.9259 30.7924C81.9501 31.0909 81.9501 31.0909 81.9259 31.4208C81.5109 31.6895 81.3791 31.7094 80.8986 31.7115C80.788 31.7136 80.6773 31.7157 80.5634 31.7178C80.1715 31.6619 79.9998 31.5723 79.7257 31.2951C79.6193 30.8683 79.6444 30.4688 79.7257 30.0383C80.1704 29.4532 80.8331 29.3934 81.5376 29.5356Z" fill="#020000"/>
<path d="M76.3444 29.4649C76.4455 29.4777 76.5467 29.4905 76.6508 29.5037C76.7259 29.5142 76.801 29.5247 76.8783 29.5356C76.8783 29.7844 76.8783 30.0333 76.8783 30.2897C76.6221 30.3312 76.3658 30.3726 76.1018 30.4154C76.0591 30.8301 76.0164 31.2449 75.9723 31.6722C75.6307 31.6722 75.289 31.6722 74.937 31.6722C74.937 30.9671 74.937 30.262 74.937 29.5356C75.8106 29.3942 75.8106 29.3942 76.3444 29.4649ZM76.1018 29.9126C76.2312 30.164 76.2312 30.164 76.2312 30.164L76.1018 29.9126Z" fill="#020000"/>
<path d="M69.8894 29.5356C70.1189 29.7275 70.1189 29.7275 70.2777 29.9126C70.2349 30.0371 70.1922 30.1615 70.1482 30.2897C70.0201 30.3312 69.892 30.3726 69.76 30.4154C69.6745 30.208 69.5891 30.0006 69.5011 29.7869C69.373 29.8492 69.373 29.8492 69.2423 29.9126C69.1209 30.4192 69.1001 30.9023 69.1128 31.4208C69.3264 31.3793 69.5399 31.3379 69.76 31.2951C69.8027 31.0878 69.8454 30.8804 69.8894 30.6667C70.0175 30.7082 70.1456 30.7497 70.2777 30.7924C70.3019 31.0909 70.3019 31.0909 70.2777 31.4208C69.8627 31.6895 69.7309 31.7094 69.2503 31.7115C69.1397 31.7136 69.0291 31.7157 68.9152 31.7178C68.5233 31.6619 68.3516 31.5723 68.0774 31.2951C67.971 30.8683 67.9962 30.4688 68.0774 30.0383C68.5222 29.4532 69.1849 29.3934 69.8894 29.5356Z" fill="#020000"/>
<path d="M100.434 28.7812C100.434 29.0301 100.434 29.279 100.434 29.5353C100.562 29.5353 100.69 29.5353 100.822 29.5353C100.822 29.6183 100.822 29.7012 100.822 29.7867C100.694 29.7867 100.566 29.7867 100.434 29.7867C100.434 30.2844 100.434 30.7821 100.434 31.2949C100.604 31.2949 100.775 31.2949 100.951 31.2949C100.951 31.3779 100.951 31.4608 100.951 31.5463C100.53 31.7507 100.124 31.6864 99.6571 31.672C99.5276 31.5463 99.5276 31.5463 99.515 31.1491C99.5173 30.9063 99.5173 30.9063 99.5196 30.6586C99.5207 30.4965 99.5219 30.3343 99.5231 30.1672C99.5246 30.0416 99.5261 29.9161 99.5276 29.7867C99.4422 29.7867 99.3568 29.7867 99.2688 29.7867C99.2688 29.7038 99.2688 29.6208 99.2688 29.5353C99.3542 29.5353 99.4396 29.5353 99.5276 29.5353C99.5357 29.4576 99.5437 29.3798 99.5519 29.2997C99.6571 29.0326 99.6571 29.0326 99.9806 28.8755C100.304 28.7812 100.304 28.7812 100.434 28.7812Z" fill="#020000"/>
<path d="M71.5719 28.7812C71.5719 29.0301 71.5719 29.279 71.5719 29.5353C71.7 29.5353 71.8282 29.5353 71.9602 29.5353C71.9602 29.6183 71.9602 29.7012 71.9602 29.7867C71.832 29.7867 71.7039 29.7867 71.5719 29.7867C71.5719 30.2844 71.5719 30.7821 71.5719 31.2949C71.7427 31.2949 71.9136 31.2949 72.0896 31.2949C72.0896 31.3779 72.0896 31.4608 72.0896 31.5463C71.6686 31.7507 71.2623 31.6864 70.7953 31.672C70.6659 31.5463 70.6659 31.5463 70.6533 31.1491C70.6555 30.9063 70.6555 30.9063 70.6578 30.6586C70.659 30.4965 70.6602 30.3343 70.6614 30.1672C70.6629 30.0416 70.6644 29.9161 70.6659 29.7867C70.5805 29.7867 70.4951 29.7867 70.4071 29.7867C70.4071 29.7038 70.4071 29.6208 70.4071 29.5353C70.4925 29.5353 70.5779 29.5353 70.6659 29.5353C70.6739 29.4576 70.6819 29.3798 70.6902 29.2997C70.7953 29.0326 70.7953 29.0326 71.1189 28.8755C71.4425 28.7812 71.4425 28.7812 71.5719 28.7812Z" fill="#020000"/>
<path d="M109.752 29.4097C109.752 30.1562 109.752 30.9028 109.752 31.672C109.411 31.672 109.069 31.672 108.717 31.672C108.717 30.9669 108.717 30.2618 108.717 29.5354C109.493 29.4097 109.493 29.4097 109.752 29.4097Z" fill="#020000"/>
<path d="M83.0907 29.4097C83.0907 30.1562 83.0907 30.9028 83.0907 31.672C82.749 31.672 82.4073 31.672 82.0553 31.672C82.0553 30.9669 82.0553 30.2618 82.0553 29.5354C82.8319 29.4097 82.8319 29.4097 83.0907 29.4097Z" fill="#020000"/>
<path d="M2.06675 20.7041C2.21758 20.7047 2.3684 20.7054 2.52379 20.7061C2.67461 20.7054 2.82543 20.7048 2.98082 20.7041C3.36505 20.7375 3.36505 20.7375 3.6239 20.9889C3.57536 21.3816 3.57536 21.3816 3.49447 21.743C2.87278 21.9442 2.17888 21.9455 1.5531 21.743C1.47221 21.3816 1.47221 21.3816 1.42368 20.9889C1.68253 20.7375 1.68253 20.7375 2.06675 20.7041Z" fill="#020000"/>
<path d="M5.96972 11.7974C6.13522 11.7977 6.30072 11.798 6.47124 11.7983C6.63674 11.798 6.80224 11.7977 6.97276 11.7974C7.37721 11.8141 7.37721 11.8141 7.50664 11.9397C7.51192 12.1911 7.51214 12.4425 7.50664 12.6938C7.0173 13.0106 6.52078 13.0039 5.95354 12.9452C5.62998 12.8195 5.62998 12.8195 5.43584 12.6938C5.43033 12.4425 5.43056 12.1911 5.43584 11.9397C5.56526 11.8141 5.56526 11.8141 5.96972 11.7974Z" fill="#020000"/>
<path d="M108.846 28.7812C109.145 28.7812 109.444 28.7812 109.752 28.7812C109.752 28.9472 109.752 29.1131 109.752 29.284C109.453 29.284 109.154 29.284 108.846 29.284C108.846 29.1181 108.846 28.9522 108.846 28.7812Z" fill="#020000"/>
<path d="M82.1847 28.7812C82.4837 28.7812 82.7827 28.7812 83.0907 28.7812C83.0907 28.9472 83.0907 29.1131 83.0907 29.284C82.7917 29.284 82.4928 29.284 82.1847 29.284C82.1847 29.1181 82.1847 28.9522 82.1847 28.7812Z" fill="#020000"/>
<path d="M104.187 28.7812C104.486 28.7812 104.785 28.7812 105.093 28.7812C104.427 29.3378 104.427 29.3378 103.928 29.4097C104.014 29.2023 104.099 28.9949 104.187 28.7812Z" fill="#020000"/>
<path d="M84.5144 28.7812C84.8133 28.7812 85.1123 28.7812 85.4203 28.7812C84.7547 29.3378 84.7547 29.3378 84.2555 29.4097C84.3409 29.2023 84.4264 28.9949 84.5144 28.7812Z" fill="#020000"/>
</svg>